<?xml version="1.0" encoding="UTF-8" standalone="no"?>
<svg
   viewBox="0 0 2048 2048"
   style="display:block"
   version="1.1"
   id="svg5"
   xmlns="http://www.w3.org/2000/svg"
   xmlns:svg="http://www.w3.org/2000/svg">
  <defs
     id="defs5" />
  <path
     d="M 0,0 H 2048 V 1814 H 0 Z"
     fill="#ffffff"
     fill-rule="nonzero"
     id="path1" />
  <g
     id="g3">
    <path
       d="m 751.828,308.576 c 79.318,-7.208 187.449,15.185 259.882,47.039 -11.792,6.877 -23.374,14.111 -34.729,21.69 -137.973,93.701 -232.875,238.561 -263.674,402.475 76.16,0.946 154.41,0.07 230.722,0.059 3.901,-13.839 8.419,-27.497 13.539,-40.932 34.94,-92.087 104.482,-169.543 194.792,-209.94 88.23,-39.81 188.74,-42.651 279.08,-7.89 92.89,36.494 167.64,108.164 208,199.442 -106.61,-1.501 -216.64,-0.079 -323.57,-0.11 -11.57,18.916 -23.69,41.059 -34.87,60.486 l -69.36,119.984 c 8.5,17.207 25.07,44.255 35.06,61.628 l 68.9,119.513 326.56,-0.06 c -74.25,161.26 -229.85,250.92 -406.87,223.37 -26.41,-5.32 -47.97,-10.42 -73.2,-20.38 -81.45,-32.13 -148.03,-92.08 -191.112,-168.02 -8.537,-15.04 -14.265,-28.26 -21.252,-44.02 l -228.559,0.1 c 31.459,127.47 102.312,241.76 202.48,326.63 23.865,19.92 46.498,35.22 72.339,51.91 -125.885,51.41 -253.374,62.02 -384.771,22.67 -10.284,5.89 -20.986,11.7 -31.449,17.28 -67.608,36.07 -134.417,74.42 -202.219,110.05 7.86,-77.28 18.627,-156.64 27.705,-233.95 -7.38,-5.74 -16.854,-14.04 -23.867,-20.3 C 263.848,1241.12 193.209,1092.67 184.957,934.498 176.361,775.831 231.746,620.342 338.713,502.837 445.291,385.975 593.844,316.12 751.828,308.576 Z"
       fill="#202a3d"
       fill-rule="nonzero"
       id="path2" />
    <path
       d="m 1289.54,565.428 c 2.81,-0.138 5.63,-0.21 8.45,-0.214 80.34,-0.864 153.97,31.044 211.04,86.945 l -232.94,-0.136 -144.15,249.909 c 13.59,22.038 27.03,47.722 40.29,70.411 34.51,59.037 67.91,119.077 102.84,177.887 79.29,-1.01 160.52,-0.22 239.96,-0.24 -18.19,18.32 -38.48,34.42 -60.46,47.97 -69,42.24 -152.16,54.76 -230.54,34.71 -84.53,-21 -146.69,-73 -190.91,-146.6 -14.32,-23.82 -27.38,-55.11 -34.848,-81.86 l -454.486,0.19 -134.323,0.1 c -16.634,0.03 -56.062,1.05 -71.46,-1.01 -15.608,-2.21 -30.1,-9.36 -41.36,-20.393 -30.647,-29.689 -30.805,-82.193 -0.623,-112.298 11.733,-11.685 26.97,-19.207 43.381,-21.416 14.251,-1.96 51.465,-1.023 68.063,-1.015 l 132.736,0.064 454.722,0.058 c 15.498,-64.112 43.018,-136.028 87.938,-185.276 55.46,-60.818 125.19,-93.143 206.68,-97.786 z"
       fill="#ffffff"
       fill-rule="nonzero"
       id="path3" />
  </g>
  <g
     id="g5">
    <path
       d="m 1282.65,333.442 c 26.99,-0.904 54.01,0.198 80.83,3.296 143.6,16.956 269.22,93.333 358.17,206.297 94.82,122.823 137.61,277.973 119.15,432.037 -17.69,147.398 -92.86,291.358 -210.16,383.508 7.27,78.67 11.93,158.05 19.44,236.45 -21.69,-11.19 -44.69,-24.73 -66.27,-36.73 l -167.79,-93.94 c -122.26,26.06 -239.72,16.73 -352.76,-39.81 -103.592,-51.5 -187.999,-134.78 -240.885,-237.67 -8.938,-17.45 -19.512,-39.43 -25.69,-57.99 l 112.196,-0.08 c 7.846,14.46 16.031,29.8 24.968,43.61 37.617,57.81 88.191,106.07 147.711,140.93 79.87,46.64 174.67,67.2 266.77,55.9 31.13,-3.82 52.22,-10.24 82.06,-18.12 10.41,5.21 24.28,13.54 34.63,19.38 l 66.39,37.66 c -1.8,-29.12 -5.36,-58.34 -7.18,-87.48 -0.26,-4.1 -0.82,-8.23 -1.42,-12.3 11.82,-9.16 25.85,-17.54 38.56,-27.39 7.2,-5.95 14.34,-11.97 21.41,-18.07 88.26,-77.08 147.78,-199.72 155.46,-316.462 -79.19,-1.436 -161.51,0.483 -241.23,-0.187 l -26.44,45.47 285.2956,-0.132 c -2.55,13.581 -6.58,27.751 -10.28,41.051 l -397.7556,-0.08 c -10.8,-16.76 -21.7,-36.406 -31.71,-53.755 -15.03,-25.813 -29.8,-51.774 -44.31,-77.878 l 76.83,-132.934 372.12,-0.23 c -6.08,-20.819 -13.28,-41.299 -21.55,-61.351 -45.28,-108.001 -131.14,-193.918 -239.11,-239.274 -102.94,-41.955 -218.29,-41.502 -320.9,1.262 -95.78,39.976 -172.328,113.815 -219.145,205.898 -8.401,16.523 -14.777,32.278 -21.817,49.377 -35.064,-0.527 -79.531,1.834 -113.449,-0.47 24.574,-78.689 65.988,-151.082 121.363,-212.151 96.228,-107.806 232.108,-171.917 376.498,-177.642 z"
       fill="#28bd61"
       fill-rule="nonzero"
       id="path4" />
    <path
       d="m 1378.04,809.04 51.35,-0.297 52.38,92.095 c -15.93,29.78 -34.92,61.301 -51.79,90.918 l -51.5,-0.138 52.6,-90.251 c -17.79,-30.562 -35.01,-62.044 -53.04,-92.327 z"
       fill="#ffffff"
       fill-rule="nonzero"
       id="path5" />
  </g>
</svg>
